<svg width="99" height="15" viewBox="0 0 99 15" fill="none" xmlns="http://www.w3.org/2000/svg">
<path d="M0.598877 14.2044H3.26797V10.6168L4.58095 9.01412L8.03906 14.2044H11.2321L6.49185 7.23267L11.1766 1.5801H7.97742L3.43441 7.14637H3.26797V1.5801H0.598877V14.2044Z" fill="#FF577F"/>
<path d="M16.4844 14.3893C18.8268 14.3893 20.4049 13.2489 20.7747 11.4921L18.346 11.3319C18.081 12.0531 17.4029 12.4291 16.5276 12.4291C15.2146 12.4291 14.3824 11.5599 14.3824 10.1483V10.1422H20.8302V9.42096C20.8302 6.20325 18.8823 4.61289 16.3796 4.61289C13.5934 4.61289 11.7873 6.59159 11.7873 9.51342C11.7873 12.5154 13.5688 14.3893 16.4844 14.3893ZM14.3824 8.51482C14.4379 7.43609 15.2578 6.5731 16.4228 6.5731C17.5632 6.5731 18.3522 7.38678 18.3583 8.51482H14.3824Z" fill="#FF577F"/>
<path d="M25.5169 8.73057C25.5231 7.51006 26.2505 6.79501 27.3107 6.79501C28.3648 6.79501 28.9997 7.4854 28.9936 8.64427V14.2044H31.6195V8.17579C31.6195 5.96901 30.325 4.61289 28.3525 4.61289C26.947 4.61289 25.9299 5.30328 25.5046 6.40667H25.3937V4.73617H22.891V14.2044H25.5169V8.73057Z" fill="#FF577F"/>
<path d="M33.987 14.2044H41.945V12.1086H37.4328V12.0407L41.7847 6.44365V4.73617H34.1473V6.832H38.6225V6.8998L33.987 12.6387V14.2044Z" fill="#FF577F"/>
<path d="M44.3001 14.2044H46.9261V4.73617H44.3001V14.2044ZM45.6192 3.51566C46.4021 3.51566 47.0432 2.91773 47.0432 2.18419C47.0432 1.45681 46.4021 0.858887 45.6192 0.858887C44.8426 0.858887 44.2015 1.45681 44.2015 2.18419C44.2015 2.91773 44.8426 3.51566 45.6192 3.51566Z" fill="#FF577F"/>
<path d="M53.6917 14.3893C56.0341 14.3893 57.6121 13.2489 57.982 11.4921L55.5533 11.3319C55.2882 12.0531 54.6102 12.4291 53.7348 12.4291C52.4219 12.4291 51.5897 11.5599 51.5897 10.1483V10.1422H58.0374V9.42096C58.0374 6.20325 56.0896 4.61289 53.5869 4.61289C50.8007 4.61289 48.9946 6.59159 48.9946 9.51342C48.9946 12.5154 50.776 14.3893 53.6917 14.3893ZM51.5897 8.51482C51.6452 7.43609 52.465 6.5731 53.63 6.5731C54.7704 6.5731 55.5594 7.38678 55.5656 8.51482H51.5897Z" fill="#FF577F"/>
<path d="M64.5122 14.2044H67.1813V8.98947H72.5997V14.2044H75.2626V1.5801H72.5997V6.78885H67.1813V1.5801H64.5122V14.2044Z" fill="#FF577F"/>
<path d="M83.8328 10.173C83.839 11.4428 82.9698 12.1086 82.0267 12.1086C81.0343 12.1086 80.3932 11.412 80.387 10.2963V4.73617H77.7611V10.7648C77.7672 12.9777 79.0617 14.3277 80.9665 14.3277C82.3904 14.3277 83.4136 13.5941 83.839 12.4846H83.9376V14.2044H86.4588V4.73617H83.8328V10.173Z" fill="#FF577F"/>
<path d="M88.9557 14.2044H91.5446V12.688H91.6618C92.0255 13.477 92.8206 14.3585 94.3493 14.3585C96.5068 14.3585 98.1896 12.651 98.1896 9.4826C98.1896 6.22791 96.4328 4.61289 94.3555 4.61289C92.7713 4.61289 92.0131 5.55601 91.6618 6.32653H91.5816V1.5801H88.9557V14.2044ZM91.5261 9.47028C91.5261 7.78129 92.2412 6.70255 93.5172 6.70255C94.8178 6.70255 95.5082 7.8306 95.5082 9.47028C95.5082 11.1223 94.8055 12.2688 93.5172 12.2688C92.2535 12.2688 91.5261 11.1593 91.5261 9.47028Z" fill="#FF577F"/>
</svg>
